<svg xmlns="http://www.w3.org/2000/svg" viewBox="0 0 24 24" class="social-icon">
    <title>Dribbbbbbbble</title>
    <path d="M12 24a12 12 0 1 1 12-12 12 12 0 0 1-12 12zm10.12-10.13a15 15 0 0 0-6.38-.44 44.33 44.33 0 0 1 2 7.31 10.28 10.28 0 0 0 4.4-6.87zM16 21.45a42.64 42.64 0 0 0-2.19-7.77h-.07c-5.79 2-7.86 6-8 6.4A10.22 10.22 0 0 0 16 21.45zM4.12 18.87a16.25 16.25 0 0 1 8.33-6.76l.4-.12c-.26-.59-.54-1.17-.83-1.74A37.78 37.78 0 0 1 1.49 11.7v.3a10.22 10.22 0 0 0 2.63 6.86zM2 9.92a38.06 38.06 0 0 0 9.48-1.25 65.47 65.47 0 0 0-3.8-5.93A10.28 10.28 0 0 0 2 9.91zm7.49-7.87a54.69 54.69 0 0 1 3.82 6 11.56 11.56 0 0 0 5.37-3.7A10.23 10.23 0 0 0 9.49 2zm10.45 3.48a13.7 13.7 0 0 1-5.72 4c.24.49.47 1 .68 1.49.08.18.15.36.22.53a24 24 0 0 1 7.14.33 10.14 10.14 0 0 0-2.31-6.38z" id="Layer_1-2" data-name="Layer 1"/>
</svg>