<svg xmlns="http://www.w3.org/2000/svg" viewBox="0 0 24 24"><defs><style>.cls-1{fill:#fff;}</style></defs><title>Asset 6</title><g id="Layer_2" data-name="Layer 2"><g id="Layer_1-2" data-name="Layer 1"><path class="cls-1" d="M12,24A12,12,0,1,1,24,12,12,12,0,0,1,12,24ZM22.12,13.87a15,15,0,0,0-6.38-.44,44.33,44.33,0,0,1,2,7.31,10.28,10.28,0,0,0,4.4-6.87ZM16,21.45a42.64,42.64,0,0,0-2.19-7.77l-.07,0c-5.79,2-7.86,6-8,6.4A10.22,10.22,0,0,0,16,21.45ZM4.12,18.87a16.25,16.25,0,0,1,8.33-6.76l.4-.12c-.26-.59-.54-1.17-.83-1.74A37.78,37.78,0,0,1,1.49,11.7V12a10.22,10.22,0,0,0,2.63,6.86ZM2,9.92a38.06,38.06,0,0,0,9.48-1.25,65.47,65.47,0,0,0-3.8-5.93A10.28,10.28,0,0,0,2,9.91ZM9.49,2.05a54.69,54.69,0,0,1,3.82,6,11.56,11.56,0,0,0,5.37-3.7A10.23,10.23,0,0,0,9.49,2ZM19.94,5.53a13.7,13.7,0,0,1-5.72,4c.24.49.47,1,.68,1.49.08.18.15.36.22.53a24,24,0,0,1,7.14.33,10.14,10.14,0,0,0-2.31-6.38Z"/></g></g></svg>