<svg xmlns="http://www.w3.org/2000/svg" viewBox="0 0 24 23.41">
    <title>Asset 7</title>
    <path d="M12 0a12 12 0 0 0-3.8 23.38c.6.11.82-.26.82-.58v-2c-3.34.72-4-1.61-4-1.61a3.18 3.18 0 0 0-1.39-1.79c-1.09-.74.08-.73.08-.73a2.52 2.52 0 0 1 1.84 1.24 2.56 2.56 0 0 0 3.49 1 2.56 2.56 0 0 1 .76-1.6C7.15 17 4.34 16 4.34 11.37a4.63 4.63 0 0 1 1.24-3.22A4.27 4.27 0 0 1 5.68 5s1-.32 3.3 1.23a11.31 11.31 0 0 1 6 0C17.26 4.65 18.27 5 18.27 5a4.38 4.38 0 0 1 .12 3.18 4.65 4.65 0 0 1 1.23 3.22c0 4.61-2.81 5.62-5.48 5.92a2.87 2.87 0 0 1 .86 2.19v3.29c0 .39.21.69.82.57A12 12 0 0 0 12 0" id="Layer_1-2" data-name="Layer 1"/>
</svg>