<svg xmlns="http://www.w3.org/2000/svg" viewBox="0 0 24 23.41"><defs><style>.cls-1{fill:#fff;}</style></defs><title>Asset 7</title><g id="Layer_2" data-name="Layer 2"><g id="Layer_1-2" data-name="Layer 1"><path class="cls-1" d="M12,0A12,12,0,0,0,8.2,23.38c.6.11.82-.26.82-.58s0-1,0-2c-3.34.72-4-1.61-4-1.61A3.18,3.18,0,0,0,3.63,17.4c-1.09-.74.08-.73.08-.73a2.52,2.52,0,0,1,1.84,1.24,2.56,2.56,0,0,0,3.49,1,2.56,2.56,0,0,1,.76-1.6C7.15,17,4.34,16,4.34,11.37A4.63,4.63,0,0,1,5.58,8.15,4.27,4.27,0,0,1,5.68,5s1-.32,3.3,1.23a11.31,11.31,0,0,1,6,0C17.26,4.65,18.27,5,18.27,5a4.38,4.38,0,0,1,.12,3.18,4.65,4.65,0,0,1,1.23,3.22c0,4.61-2.81,5.62-5.48,5.92A2.87,2.87,0,0,1,15,19.51c0,1.61,0,2.9,0,3.29s.21.69.82.57A12,12,0,0,0,12,0"/></g></g></svg>