<svg xmlns="http://www.w3.org/2000/svg" viewBox="0 0 24 24"><defs><style>.cls-1{fill:#fff;}</style></defs><title>Asset 5</title><g id="Layer_2" data-name="Layer 2"><g id="Layer_1-2" data-name="Layer 1"><path class="cls-1" d="M20,20H16V14.43c0-1.33,0-3-1.86-3S12,12.84,12,14.33V20H9V9h3v2h0a4,4,0,0,1,3.51-1.68c3.75,0,4.44,2.16,4.44,5V20ZM4.85,7.56A2.06,2.06,0,1,1,6.92,5.49,2.06,2.06,0,0,1,4.85,7.56ZM7,20H3V9H7ZM22.23,0H1.77A1.75,1.75,0,0,0,0,1.73V22.27A1.75,1.75,0,0,0,1.77,24H22.22A1.76,1.76,0,0,0,24,22.27V1.73A1.76,1.76,0,0,0,22.22,0Z"/></g></g></svg>